File Name

Bad Lieutenant 1992 720p BRRip H264.mp4

File Size
Format : MPEG-4
Format profile : Base Media
Codec ID : isom
File size : 1.76 GiB
Duration : 1h 36mn
Overall bit rate : 2 623 Kbps

Video
ID : 1
Format : AVC
Format/Info : Advanced Video Codec
Format profile : High@L4.1
Format settings, CABAC : Yes
Format settings, ReFrames : 3 frames
Codec ID : avc1
Codec ID/Info : Advanced Video Coding
Duration : 1h 36mn
Bit rate mode : Variable
Bit rate : 2 299 Kbps
Maximum bit rate : 9 180 Kbps
Width : 1 280 pixels
Height : 720 pixels
Display aspect ratio : 16:9
Frame rate mode : Constant
Frame rate : 23.976 fps
Resolution : 24 bits
Colorimetry : 4:2:0
Scan type : Progressive
Bits/(Pixel*Frame) : 0.104
Stream size : 1.55 GiB (88%)

Audio
ID : 2
Format : AAC
Format/Info : Advanced Audio Codec
Format version : Version 4
Format profile : LC
Format settings, SBR : No
Codec ID : 40
Duration : 1h 36mn
Bit rate mode : Variable
Bit rate : 320 Kbps
Maximum bit rate : 328 Kbps
Channel(s) : 2 channels
Channel positions : L R
Sampling rate : 48.0 KHz
Resolution : 16 bits
Stream size : 220 MiB (12%)

English SRT : External

Language : English
 
http://www.imdb.com/title/tt0103759/

Release Date: 20 November 1992 (USA)

Genre: Crime | Drama | Thriller

Plot: While investigating a young nun's rape, a corrupt New York City police detective, with a serious drug and gambling addiction, tries to change his ways and find forgiveness.

Cast:
Harvey Keitel ... The Lieutenant
Victor Argo ... Beat Cop
Paul Calderon ... Cop #1 (as Paul Calderone)
Leonard L. Thomas ... Cop #2 (as Leonard Thomas)
Robin Burrows ... Ariane
Frankie Thorn ... The Nun
Victoria Bastel ... Bowtay
Paul Hipp ... Jesus
Brian McElroy ... Lieutenant's Son (#1)
Frankie Acciarito ... Lieutenant's Son (#2)
Peggy Gormley ... Lieutenant's Wife
Stella Keitel ... Lieutenant's Daughter
Dana Dee ... Lieutenant's Baby Girl
Anthony Ruggiero ... Lite
Vincent Laresca ... J.C.
